<svg width="308" height="101" viewBox="0 0 308 101" fill="none" xmlns="http://www.w3.org/2000/svg">
<path d="M0.5 20.5723C0.5 9.52657 9.45431 0.572266 20.5 0.572266H287.5C298.546 0.572266 307.5 9.52657 307.5 20.5723V80.5723C307.5 91.618 298.546 100.572 287.5 100.572H20.5C9.4543 100.572 0.5 91.618 0.5 80.5723V20.5723Z" fill="white" fill-opacity="0.06"/>
<path d="M20.5 1.07227H287.5C298.27 1.07227 307 9.80271 307 20.5723V80.5723C307 91.3418 298.27 100.072 287.5 100.072H20.5C9.73045 100.072 1 91.3418 1 80.5723V20.5723C1 9.80271 9.73045 1.07227 20.5 1.07227Z" stroke="url(#paint0_linear_1305_20064)" stroke-opacity="0.3"/>
<rect width="159" height="13" rx="6.5" transform="matrix(-1 0 0 1 206.862 32.5723)" fill="#D9D9D9" fill-opacity="0.77"/>
<rect width="104" height="13" rx="6.5" transform="matrix(-1 0 0 1 206.862 55.5723)" fill="#D9D9D9" fill-opacity="0.31"/>
<circle cx="241" cy="50.5725" r="24.1379" fill="#D9D9D9" fill-opacity="0.46"/>
<path d="M241.107 48.5205C239.946 48.5205 238.951 48.1069 238.124 47.2797C237.297 46.4525 236.883 45.458 236.883 44.2964C236.883 43.1348 237.297 42.1403 238.124 41.3131C238.951 40.4859 239.946 40.0723 241.107 40.0723C242.269 40.0723 243.264 40.4859 244.091 41.3131C244.918 42.1403 245.332 43.1348 245.332 44.2964C245.332 45.458 244.918 46.4525 244.091 47.2797C243.264 48.1069 242.269 48.5205 241.107 48.5205ZM232.659 54.8567V54.0119C232.659 53.4135 232.813 52.8637 233.122 52.3624C233.43 51.8611 233.839 51.4781 234.349 51.2134C235.44 50.6678 236.549 50.2588 237.675 49.9863C238.802 49.7139 239.946 49.5773 241.107 49.5766C242.269 49.5759 243.413 49.7125 244.54 49.9863C245.666 50.2602 246.775 50.6692 247.866 51.2134C248.376 51.4774 248.786 51.8604 249.094 52.3624C249.403 52.8644 249.556 53.4142 249.556 54.0119V54.8567C249.556 55.4376 249.349 55.935 248.936 56.3489C248.523 56.7629 248.025 56.9695 247.444 56.9688H234.771C234.19 56.9688 233.693 56.7622 233.28 56.3489C232.867 55.9357 232.66 55.4383 232.659 54.8567Z" fill="#727272" style="mix-blend-mode:plus-lighter"/>
<defs>
<linearGradient id="paint0_linear_1305_20064" x1="307.5" y1="100.499" x2="178.077" y2="-109.134" gradientUnits="userSpaceOnUse">
<stop stop-color="white" stop-opacity="0.74"/>
<stop offset="1" stop-opacity="0"/>
</linearGradient>
</defs>
</svg>
