<svg width="50" height="49" viewBox="0 0 50 49" fill="none" xmlns="http://www.w3.org/2000/svg">
<circle cx="25.0002" cy="24.5247" r="24.1379" fill="#D9D9D9" fill-opacity="0.46"/>
<path d="M25.1075 22.4717C23.9458 22.4717 22.9514 22.0581 22.1242 21.2309C21.2969 20.4036 20.8833 19.4092 20.8833 18.2476C20.8833 17.0859 21.2969 16.0915 22.1242 15.2643C22.9514 14.4371 23.9458 14.0234 25.1075 14.0234C26.2691 14.0234 27.2635 14.4371 28.0908 15.2643C28.918 16.0915 29.3316 17.0859 29.3316 18.2476C29.3316 19.4092 28.918 20.4036 28.0908 21.2309C27.2635 22.0581 26.2691 22.4717 25.1075 22.4717ZM16.6592 28.8079V27.9631C16.6592 27.3647 16.8134 26.8148 17.1217 26.3136C17.4301 25.8123 17.8391 25.4293 18.3488 25.1646C19.4401 24.619 20.5489 24.2099 21.6753 23.9375C22.8018 23.665 23.9458 23.5285 25.1075 23.5277C26.2691 23.527 27.4131 23.6636 28.5396 23.9375C29.666 24.2114 30.7748 24.6204 31.8661 25.1646C32.3765 25.4286 32.7859 25.8116 33.0942 26.3136C33.4026 26.8155 33.5564 27.3654 33.5557 27.9631V28.8079C33.5557 29.3887 33.3491 29.8861 32.9358 30.3001C32.5226 30.7141 32.0252 30.9207 31.4437 30.92H18.7712C18.1904 30.92 17.6934 30.7134 17.2801 30.3001C16.8669 29.8868 16.6599 29.3894 16.6592 28.8079Z" fill="#727272" style="mix-blend-mode:plus-lighter"/>
</svg>
